<?xml version="1.0" encoding="utf-8"?>
<!-- Generator: Adobe Illustrator 24.3.0, SVG Export Plug-In . SVG Version: 6.00 Build 0)  -->
<svg version="1.1" id="Capa_1" xmlns="http://www.w3.org/2000/svg" xmlns:xlink="http://www.w3.org/1999/xlink" x="0px" y="0px"
	 viewBox="0 0 99.2 109.5" style="enable-background:new 0 0 99.2 109.5;" xml:space="preserve">
<style type="text/css">
	.st0{clip-path:url(#SVGID_2_);fill:#050604;}
	.st1{clip-path:url(#SVGID_4_);fill:#BC1B1C;}
	.st2{clip-path:url(#SVGID_6_);fill:#BC1B1C;}
	.st3{clip-path:url(#SVGID_8_);fill:#FFE745;}
	.st4{clip-path:url(#SVGID_10_);fill:#FFE745;}
	.st5{clip-path:url(#SVGID_12_);fill:#FFE745;}
	.st6{clip-path:url(#SVGID_14_);fill:#FAEB4D;}
	.st7{clip-path:url(#SVGID_16_);fill:#C61E1C;}
	.st8{clip-path:url(#SVGID_18_);fill:#D0C239;}
	.st9{clip-path:url(#SVGID_20_);fill:#D41E1E;}
	.st10{clip-path:url(#SVGID_22_);fill:#D41E1E;}
	.st11{clip-path:url(#SVGID_24_);fill:#D41E1E;}
	.st12{clip-path:url(#SVGID_26_);fill:#B71C1B;}
	.st13{clip-path:url(#SVGID_28_);fill:#C51E1C;}
	.st14{clip-path:url(#SVGID_30_);fill:#C51E1C;}
	.st15{clip-path:url(#SVGID_32_);fill:#C71E1C;}
	.st16{clip-path:url(#SVGID_34_);fill:#C31E1C;}
	.st17{clip-path:url(#SVGID_36_);fill:#CF1E1D;}
	.st18{clip-path:url(#SVGID_38_);fill:#BC1B1C;}
	.st19{clip-path:url(#SVGID_40_);fill:#CA1E1C;}
	.st20{clip-path:url(#SVGID_42_);fill:#D91F1E;}
	.st21{clip-path:url(#SVGID_44_);fill:#D91F1E;}
	.st22{clip-path:url(#SVGID_46_);fill:#C21E1B;}
	.st23{clip-path:url(#SVGID_48_);fill:#D31E1E;}
	.st24{clip-path:url(#SVGID_50_);fill:#CC1E1D;}
	.st25{clip-path:url(#SVGID_52_);fill:#D31F1E;}
	.st26{clip-path:url(#SVGID_54_);fill:#D21E1E;}
	.st27{clip-path:url(#SVGID_56_);fill:#CA1E1D;}
	.st28{clip-path:url(#SVGID_58_);fill:#D31F1E;}
	.st29{clip-path:url(#SVGID_60_);fill:#D21E1E;}
	.st30{clip-path:url(#SVGID_62_);fill:#C41E1C;}
	.st31{clip-path:url(#SVGID_64_);fill:#CF1E1D;}
	.st32{clip-path:url(#SVGID_66_);fill:#D41F1E;}
	.st33{clip-path:url(#SVGID_68_);fill:#D11F1D;}
	.st34{clip-path:url(#SVGID_70_);fill:#D31E1E;}
	.st35{clip-path:url(#SVGID_72_);fill:#D21E1D;}
	.st36{clip-path:url(#SVGID_74_);fill:#C81E1C;}
	.st37{clip-path:url(#SVGID_76_);fill:#C21E1B;}
	.st38{clip-path:url(#SVGID_78_);fill:#D31F1E;}
	.st39{clip-path:url(#SVGID_80_);fill:#C11E1B;}
	.st40{clip-path:url(#SVGID_82_);fill:#CD1E1D;}
	.st41{clip-path:url(#SVGID_84_);fill:#C81E1C;}
	.st42{clip-path:url(#SVGID_86_);fill:#C81E1C;}
	.st43{clip-path:url(#SVGID_88_);fill:#CA1E1C;}
	.st44{clip-path:url(#SVGID_90_);fill:#C51E1C;}
	.st45{clip-path:url(#SVGID_92_);fill:#D41F1E;}
	.st46{clip-path:url(#SVGID_94_);fill:#D41F1E;}
	.st47{clip-path:url(#SVGID_96_);fill:#CE1E1D;}
	.st48{clip-path:url(#SVGID_98_);fill:#CA1E1C;}
	.st49{clip-path:url(#SVGID_100_);fill:#C71F1C;}
	.st50{clip-path:url(#SVGID_102_);fill:#CB1E1D;}
	.st51{clip-path:url(#SVGID_104_);fill:#D11E1E;}
	.st52{clip-path:url(#SVGID_106_);fill:#CD1F1D;}
	.st53{clip-path:url(#SVGID_108_);fill:#D41F1E;}
	.st54{clip-path:url(#SVGID_110_);fill:#C71E1C;}
	.st55{clip-path:url(#SVGID_112_);fill:#CE1F1D;}
	.st56{clip-path:url(#SVGID_114_);fill:#C91E1C;}
	.st57{clip-path:url(#SVGID_116_);fill:#CE1E1D;}
	.st58{clip-path:url(#SVGID_118_);fill:#CA1F1C;}
	.st59{clip-path:url(#SVGID_120_);fill:#CB1E1D;}
	.st60{clip-path:url(#SVGID_122_);fill:#CA1F1D;}
	.st61{clip-path:url(#SVGID_124_);fill:#CD1E1D;}
	.st62{clip-path:url(#SVGID_126_);fill:#CA1F1D;}
	.st63{clip-path:url(#SVGID_128_);fill:#CF1E1D;}
	.st64{clip-path:url(#SVGID_130_);fill:#CE1E1D;}
	.st65{clip-path:url(#SVGID_132_);fill:#CB1E1D;}
	.st66{clip-path:url(#SVGID_134_);fill:#CA1F1C;}
	.st67{clip-path:url(#SVGID_136_);fill:#D01F1D;}
	.st68{clip-path:url(#SVGID_138_);fill:#CB1E1C;}
	.st69{clip-path:url(#SVGID_140_);fill:#CD1F1D;}
	.st70{clip-path:url(#SVGID_142_);fill:#CF1E1D;}
	.st71{clip-path:url(#SVGID_144_);fill:#CF1E1D;}
	.st72{clip-path:url(#SVGID_146_);fill:#CD1F1D;}
	.st73{clip-path:url(#SVGID_148_);fill:#CB1F1D;}
	.st74{clip-path:url(#SVGID_150_);fill:#D11E1D;}
	.st75{clip-path:url(#SVGID_152_);fill:#CE1E1D;}
	.st76{clip-path:url(#SVGID_154_);fill:#C91E1C;}
	.st77{clip-path:url(#SVGID_156_);fill:#CA1F1D;}
	.st78{clip-path:url(#SVGID_158_);fill:#D71F1E;}
	.st79{clip-path:url(#SVGID_160_);fill:#CF1F1D;}
	.st80{clip-path:url(#SVGID_162_);fill:#C51E1C;}
	.st81{clip-path:url(#SVGID_164_);fill:#CF1F1D;}
	.st82{clip-path:url(#SVGID_166_);fill:#CF1E1D;}
	.st83{clip-path:url(#SVGID_168_);fill:#CD1E1D;}
	.st84{clip-path:url(#SVGID_170_);fill:#CA1F1D;}
	.st85{clip-path:url(#SVGID_172_);fill:#CE1F1D;}
	.st86{clip-path:url(#SVGID_174_);fill:#D01F1D;}
	.st87{clip-path:url(#SVGID_176_);fill:#CF1E1D;}
	.st88{clip-path:url(#SVGID_178_);fill:#D11F1D;}
	.st89{clip-path:url(#SVGID_180_);fill:#D01F1D;}
	.st90{clip-path:url(#SVGID_182_);fill:#CE1F1D;}
	.st91{clip-path:url(#SVGID_184_);fill:#CE1F1D;}
	.st92{clip-path:url(#SVGID_186_);fill:#D01F1E;}
	.st93{clip-path:url(#SVGID_188_);fill:#D01F1D;}
	.st94{clip-path:url(#SVGID_190_);fill:#D11F1E;}
	.st95{clip-path:url(#SVGID_192_);fill:#CE1E1D;}
	.st96{clip-path:url(#SVGID_194_);fill:#CE1F1D;}
	.st97{clip-path:url(#SVGID_196_);fill:#D01F1D;}
	.st98{clip-path:url(#SVGID_198_);fill:#CF1E1D;}
	.st99{clip-path:url(#SVGID_200_);fill:#CF1E1D;}
	.st100{clip-path:url(#SVGID_202_);fill:#D21F1E;}
	.st101{clip-path:url(#SVGID_204_);fill:#D11F1D;}
	.st102{clip-path:url(#SVGID_206_);fill:#BC1B1C;}
	.st103{clip-path:url(#SVGID_208_);fill:#BC1B1C;}
	.st104{clip-path:url(#SVGID_210_);fill:#D81F1E;}
	.st105{clip-path:url(#SVGID_212_);fill:#D21F1E;}
	.st106{clip-path:url(#SVGID_214_);fill:#D61F1E;}
	.st107{clip-path:url(#SVGID_216_);fill:#D11E1E;}
	.st108{clip-path:url(#SVGID_218_);fill:#D51E1E;}
	.st109{clip-path:url(#SVGID_220_);fill:#D81F1E;}
	.st110{clip-path:url(#SVGID_222_);fill:#CE1F1D;}
	.st111{clip-path:url(#SVGID_224_);fill:#D11E1E;}
	.st112{clip-path:url(#SVGID_226_);fill:#CF1F1D;}
	.st113{clip-path:url(#SVGID_228_);fill:#D21F1E;}
	.st114{clip-path:url(#SVGID_230_);fill:#BC1B1C;}
	.st115{clip-path:url(#SVGID_232_);fill:#D01F1E;}
	.st116{clip-path:url(#SVGID_234_);fill:#C71F1C;}
	.st117{clip-path:url(#SVGID_236_);fill:#D01E1E;}
	.st118{clip-path:url(#SVGID_238_);fill:#D01E1E;}
	.st119{clip-path:url(#SVGID_240_);fill:#D01E1D;}
	.st120{clip-path:url(#SVGID_242_);fill:#D21E1E;}
	.st121{clip-path:url(#SVGID_244_);fill:#D01F1D;}
	.st122{clip-path:url(#SVGID_246_);fill:#D21E1E;}
	.st123{clip-path:url(#SVGID_248_);fill:#D01E1D;}
	.st124{clip-path:url(#SVGID_250_);fill:#CE1F1D;}
	.st125{clip-path:url(#SVGID_252_);fill:#CF1E1E;}
	.st126{clip-path:url(#SVGID_254_);fill:#D01E1D;}
	.st127{clip-path:url(#SVGID_256_);fill:#D01E1D;}
	.st128{clip-path:url(#SVGID_258_);fill:#CF1E1D;}
	.st129{clip-path:url(#SVGID_260_);fill:#CE1F1D;}
	.st130{clip-path:url(#SVGID_262_);fill:#C71F1C;}
	.st131{clip-path:url(#SVGID_264_);fill:#D31F1E;}
	.st132{clip-path:url(#SVGID_266_);fill:#CF1E1E;}
	.st133{clip-path:url(#SVGID_268_);fill:#D11E1D;}
	.st134{clip-path:url(#SVGID_270_);fill:#CF1E1D;}
	.st135{clip-path:url(#SVGID_272_);fill:#D11F1D;}
	.st136{clip-path:url(#SVGID_274_);fill:#CF1F1D;}
	.st137{clip-path:url(#SVGID_276_);fill:#D11E1E;}
	.st138{clip-path:url(#SVGID_278_);fill:#D11E1E;}
	.st139{clip-path:url(#SVGID_280_);fill:#D21F1E;}
	.st140{clip-path:url(#SVGID_282_);fill:#BC1B1C;}
	.st141{clip-path:url(#SVGID_284_);fill:#D11F1E;}
	.st142{clip-path:url(#SVGID_286_);fill:#D11F1D;}
	.st143{clip-path:url(#SVGID_288_);fill:#CF1F1D;}
	.st144{clip-path:url(#SVGID_290_);fill:#CF1E1D;}
	.st145{clip-path:url(#SVGID_292_);fill:#CF1F1D;}
	.st146{clip-path:url(#SVGID_294_);fill:#D01E1D;}
	.st147{clip-path:url(#SVGID_296_);fill:#CF1F1D;}
	.st148{clip-path:url(#SVGID_298_);fill:#D11E1E;}
	.st149{clip-path:url(#SVGID_300_);fill:#BC1B1C;}
	.st150{clip-path:url(#SVGID_302_);fill:#D11F1D;}
	.st151{clip-path:url(#SVGID_304_);fill:#D11E1D;}
	.st152{clip-path:url(#SVGID_306_);fill:#CF1E1D;}
	.st153{clip-path:url(#SVGID_308_);fill:#D01F1D;}
	.st154{clip-path:url(#SVGID_310_);fill:#D11E1E;}
	.st155{clip-path:url(#SVGID_312_);fill:#D11E1D;}
	.st156{clip-path:url(#SVGID_314_);fill:#CF1E1D;}
	.st157{clip-path:url(#SVGID_316_);fill:#D21F1E;}
	.st158{clip-path:url(#SVGID_318_);fill:#D51F1E;}
	.st159{clip-path:url(#SVGID_320_);fill:#DA1F1E;}
	.st160{clip-path:url(#SVGID_322_);fill:#D11F1D;}
	.st161{clip-path:url(#SVGID_324_);fill:#D81F1E;}
	.st162{clip-path:url(#SVGID_326_);fill:#D21E1D;}
	.st163{clip-path:url(#SVGID_328_);fill:#DC201F;}
	.st164{clip-path:url(#SVGID_330_);fill:#D91F1E;}
	.st165{clip-path:url(#SVGID_332_);fill:#DA1F1E;}
	.st166{clip-path:url(#SVGID_334_);fill:#D01E1D;}
	.st167{clip-path:url(#SVGID_336_);fill:#BC1B1C;}
	.st168{clip-path:url(#SVGID_338_);fill:#D8CB3F;}
	.st169{clip-path:url(#SVGID_340_);fill:#BC1B1C;}
	.st170{fill:none;}
	.st171{fill:#FFE745;}
	.st172{clip-path:url(#SVGID_352_);fill:#FAEB4D;}
	.st173{clip-path:url(#SVGID_354_);fill:#C61E1C;}
	.st174{clip-path:url(#SVGID_356_);fill:#D0C239;}
	.st175{clip-path:url(#SVGID_358_);fill:#D41E1E;}
	.st176{clip-path:url(#SVGID_360_);fill:#D41E1E;}
	.st177{clip-path:url(#SVGID_362_);fill:#D41E1E;}
	.st178{clip-path:url(#SVGID_364_);fill:#B71C1B;}
	.st179{clip-path:url(#SVGID_366_);fill:#C51E1C;}
	.st180{clip-path:url(#SVGID_368_);fill:#C51E1C;}
	.st181{clip-path:url(#SVGID_370_);fill:#C71E1C;}
	.st182{clip-path:url(#SVGID_372_);fill:#C31E1C;}
	.st183{clip-path:url(#SVGID_374_);fill:#CF1E1D;}
	.st184{clip-path:url(#SVGID_376_);fill:#BC1B1C;}
	.st185{clip-path:url(#SVGID_378_);fill:#CA1E1C;}
	.st186{clip-path:url(#SVGID_380_);fill:#D91F1E;}
	.st187{clip-path:url(#SVGID_382_);fill:#D91F1E;}
	.st188{clip-path:url(#SVGID_384_);fill:#C21E1B;}
	.st189{clip-path:url(#SVGID_386_);fill:#D31E1E;}
	.st190{clip-path:url(#SVGID_388_);fill:#CC1E1D;}
	.st191{clip-path:url(#SVGID_390_);fill:#D31F1E;}
	.st192{clip-path:url(#SVGID_392_);fill:#D21E1E;}
	.st193{clip-path:url(#SVGID_394_);fill:#CA1E1D;}
	.st194{clip-path:url(#SVGID_396_);fill:#D31F1E;}
	.st195{clip-path:url(#SVGID_398_);fill:#D21E1E;}
	.st196{clip-path:url(#SVGID_400_);fill:#C41E1C;}
	.st197{clip-path:url(#SVGID_402_);fill:#CF1E1D;}
	.st198{clip-path:url(#SVGID_404_);fill:#D41F1E;}
	.st199{clip-path:url(#SVGID_406_);fill:#D11F1D;}
	.st200{clip-path:url(#SVGID_408_);fill:#D31E1E;}
	.st201{clip-path:url(#SVGID_410_);fill:#D21E1D;}
	.st202{clip-path:url(#SVGID_412_);fill:#C81E1C;}
	.st203{clip-path:url(#SVGID_414_);fill:#C21E1B;}
	.st204{clip-path:url(#SVGID_416_);fill:#D31F1E;}
	.st205{clip-path:url(#SVGID_418_);fill:#C11E1B;}
	.st206{clip-path:url(#SVGID_420_);fill:#CD1E1D;}
	.st207{clip-path:url(#SVGID_422_);fill:#C81E1C;}
	.st208{clip-path:url(#SVGID_424_);fill:#C81E1C;}
	.st209{clip-path:url(#SVGID_426_);fill:#CA1E1C;}
	.st210{clip-path:url(#SVGID_428_);fill:#C51E1C;}
	.st211{clip-path:url(#SVGID_430_);fill:#D41F1E;}
	.st212{clip-path:url(#SVGID_432_);fill:#D41F1E;}
	.st213{clip-path:url(#SVGID_434_);fill:#CE1E1D;}
	.st214{clip-path:url(#SVGID_436_);fill:#CA1E1C;}
	.st215{clip-path:url(#SVGID_438_);fill:#C71F1C;}
	.st216{clip-path:url(#SVGID_440_);fill:#CB1E1D;}
	.st217{clip-path:url(#SVGID_442_);fill:#D11E1E;}
	.st218{clip-path:url(#SVGID_444_);fill:#CD1F1D;}
	.st219{clip-path:url(#SVGID_446_);fill:#D41F1E;}
	.st220{clip-path:url(#SVGID_448_);fill:#C71E1C;}
	.st221{clip-path:url(#SVGID_450_);fill:#CE1F1D;}
	.st222{clip-path:url(#SVGID_452_);fill:#C91E1C;}
	.st223{clip-path:url(#SVGID_454_);fill:#CE1E1D;}
	.st224{clip-path:url(#SVGID_456_);fill:#CA1F1C;}
	.st225{clip-path:url(#SVGID_458_);fill:#CB1E1D;}
	.st226{clip-path:url(#SVGID_460_);fill:#CA1F1D;}
	.st227{clip-path:url(#SVGID_462_);fill:#CD1E1D;}
	.st228{clip-path:url(#SVGID_464_);fill:#CA1F1D;}
	.st229{clip-path:url(#SVGID_466_);fill:#CF1E1D;}
	.st230{clip-path:url(#SVGID_468_);fill:#CE1E1D;}
	.st231{clip-path:url(#SVGID_470_);fill:#CB1E1D;}
	.st232{clip-path:url(#SVGID_472_);fill:#CA1F1C;}
	.st233{clip-path:url(#SVGID_474_);fill:#D01F1D;}
	.st234{clip-path:url(#SVGID_476_);fill:#CB1E1C;}
	.st235{clip-path:url(#SVGID_478_);fill:#CD1F1D;}
	.st236{clip-path:url(#SVGID_480_);fill:#CF1E1D;}
	.st237{clip-path:url(#SVGID_482_);fill:#CF1E1D;}
	.st238{clip-path:url(#SVGID_484_);fill:#CD1F1D;}
	.st239{clip-path:url(#SVGID_486_);fill:#CB1F1D;}
	.st240{clip-path:url(#SVGID_488_);fill:#D11E1D;}
	.st241{clip-path:url(#SVGID_490_);fill:#CE1E1D;}
	.st242{clip-path:url(#SVGID_492_);fill:#C91E1C;}
	.st243{clip-path:url(#SVGID_494_);fill:#CA1F1D;}
	.st244{clip-path:url(#SVGID_496_);fill:#D71F1E;}
	.st245{clip-path:url(#SVGID_498_);fill:#CF1F1D;}
	.st246{clip-path:url(#SVGID_500_);fill:#C51E1C;}
	.st247{clip-path:url(#SVGID_502_);fill:#CF1F1D;}
	.st248{clip-path:url(#SVGID_504_);fill:#CF1E1D;}
	.st249{clip-path:url(#SVGID_506_);fill:#CD1E1D;}
	.st250{clip-path:url(#SVGID_508_);fill:#CA1F1D;}
	.st251{clip-path:url(#SVGID_510_);fill:#CE1F1D;}
	.st252{clip-path:url(#SVGID_512_);fill:#D01F1D;}
	.st253{clip-path:url(#SVGID_514_);fill:#CF1E1D;}
	.st254{clip-path:url(#SVGID_516_);fill:#D11F1D;}
	.st255{clip-path:url(#SVGID_518_);fill:#D01F1D;}
	.st256{clip-path:url(#SVGID_520_);fill:#CE1F1D;}
	.st257{clip-path:url(#SVGID_522_);fill:#CE1F1D;}
	.st258{clip-path:url(#SVGID_524_);fill:#D01F1E;}
	.st259{clip-path:url(#SVGID_526_);fill:#D01F1D;}
	.st260{clip-path:url(#SVGID_528_);fill:#D11F1E;}
	.st261{clip-path:url(#SVGID_530_);fill:#CE1E1D;}
	.st262{clip-path:url(#SVGID_532_);fill:#CE1F1D;}
	.st263{clip-path:url(#SVGID_534_);fill:#D01F1D;}
	.st264{clip-path:url(#SVGID_536_);fill:#CF1E1D;}
	.st265{clip-path:url(#SVGID_538_);fill:#CF1E1D;}
	.st266{clip-path:url(#SVGID_540_);fill:#D21F1E;}
	.st267{clip-path:url(#SVGID_542_);fill:#D11F1D;}
	.st268{clip-path:url(#SVGID_544_);fill:#BC1B1C;}
	.st269{clip-path:url(#SVGID_546_);fill:#BC1B1C;}
	.st270{clip-path:url(#SVGID_548_);fill:#D81F1E;}
	.st271{clip-path:url(#SVGID_550_);fill:#D21F1E;}
	.st272{clip-path:url(#SVGID_552_);fill:#D61F1E;}
	.st273{clip-path:url(#SVGID_554_);fill:#D11E1E;}
	.st274{clip-path:url(#SVGID_556_);fill:#D51E1E;}
	.st275{clip-path:url(#SVGID_558_);fill:#D81F1E;}
	.st276{clip-path:url(#SVGID_560_);fill:#CE1F1D;}
	.st277{clip-path:url(#SVGID_562_);fill:#D11E1E;}
	.st278{clip-path:url(#SVGID_564_);fill:#CF1F1D;}
	.st279{clip-path:url(#SVGID_566_);fill:#D21F1E;}
	.st280{clip-path:url(#SVGID_568_);fill:#BC1B1C;}
	.st281{clip-path:url(#SVGID_570_);fill:#D01F1E;}
	.st282{clip-path:url(#SVGID_572_);fill:#C71F1C;}
	.st283{clip-path:url(#SVGID_574_);fill:#D01E1E;}
	.st284{clip-path:url(#SVGID_576_);fill:#D01E1E;}
	.st285{clip-path:url(#SVGID_578_);fill:#D01E1D;}
	.st286{clip-path:url(#SVGID_580_);fill:#D21E1E;}
	.st287{clip-path:url(#SVGID_582_);fill:#D01F1D;}
	.st288{clip-path:url(#SVGID_584_);fill:#D21E1E;}
	.st289{clip-path:url(#SVGID_586_);fill:#D01E1D;}
	.st290{clip-path:url(#SVGID_588_);fill:#CE1F1D;}
	.st291{clip-path:url(#SVGID_590_);fill:#CF1E1E;}
	.st292{clip-path:url(#SVGID_592_);fill:#D01E1D;}
	.st293{clip-path:url(#SVGID_594_);fill:#D01E1D;}
	.st294{clip-path:url(#SVGID_596_);fill:#CF1E1D;}
	.st295{clip-path:url(#SVGID_598_);fill:#CE1F1D;}
	.st296{clip-path:url(#SVGID_600_);fill:#C71F1C;}
	.st297{clip-path:url(#SVGID_602_);fill:#D31F1E;}
	.st298{clip-path:url(#SVGID_604_);fill:#CF1E1E;}
	.st299{clip-path:url(#SVGID_606_);fill:#D11E1D;}
	.st300{clip-path:url(#SVGID_608_);fill:#CF1E1D;}
	.st301{clip-path:url(#SVGID_610_);fill:#D11F1D;}
	.st302{clip-path:url(#SVGID_612_);fill:#CF1F1D;}
	.st303{clip-path:url(#SVGID_614_);fill:#D11E1E;}
	.st304{clip-path:url(#SVGID_616_);fill:#D11E1E;}
	.st305{clip-path:url(#SVGID_618_);fill:#D21F1E;}
	.st306{clip-path:url(#SVGID_620_);fill:#BC1B1C;}
	.st307{clip-path:url(#SVGID_622_);fill:#D11F1E;}
	.st308{clip-path:url(#SVGID_624_);fill:#D11F1D;}
	.st309{clip-path:url(#SVGID_626_);fill:#CF1F1D;}
	.st310{clip-path:url(#SVGID_628_);fill:#CF1E1D;}
	.st311{clip-path:url(#SVGID_630_);fill:#CF1F1D;}
	.st312{clip-path:url(#SVGID_632_);fill:#D01E1D;}
	.st313{clip-path:url(#SVGID_634_);fill:#CF1F1D;}
	.st314{clip-path:url(#SVGID_636_);fill:#D11E1E;}
	.st315{clip-path:url(#SVGID_638_);fill:#BC1B1C;}
	.st316{clip-path:url(#SVGID_640_);fill:#D11F1D;}
	.st317{clip-path:url(#SVGID_642_);fill:#D11E1D;}
	.st318{clip-path:url(#SVGID_644_);fill:#CF1E1D;}
	.st319{clip-path:url(#SVGID_646_);fill:#D01F1D;}
	.st320{clip-path:url(#SVGID_648_);fill:#D11E1E;}
	.st321{clip-path:url(#SVGID_650_);fill:#D11E1D;}
	.st322{clip-path:url(#SVGID_652_);fill:#CF1E1D;}
	.st323{clip-path:url(#SVGID_654_);fill:#D21F1E;}
	.st324{clip-path:url(#SVGID_656_);fill:#D51F1E;}
	.st325{clip-path:url(#SVGID_658_);fill:#DA1F1E;}
	.st326{clip-path:url(#SVGID_660_);fill:#D11F1D;}
	.st327{clip-path:url(#SVGID_662_);fill:#D81F1E;}
	.st328{clip-path:url(#SVGID_664_);fill:#D21E1D;}
	.st329{clip-path:url(#SVGID_666_);fill:#DC201F;}
	.st330{clip-path:url(#SVGID_668_);fill:#D91F1E;}
	.st331{clip-path:url(#SVGID_670_);fill:#DA1F1E;}
	.st332{clip-path:url(#SVGID_672_);fill:#D01E1D;}
	.st333{clip-path:url(#SVGID_674_);fill:#BC1B1C;}
	.st334{clip-path:url(#SVGID_676_);fill:#050604;}
	.st335{clip-path:url(#SVGID_678_);}
	.st336{clip-path:url(#SVGID_680_);}
	.st337{clip-path:url(#SVGID_682_);fill:#192EF4;}
	.st338{clip-path:url(#SVGID_684_);fill:#192EF4;}
	.st339{clip-path:url(#SVGID_686_);fill:#192EF4;}
	.st340{clip-path:url(#SVGID_688_);fill:#192EF4;}
	.st341{clip-path:url(#SVGID_692_);fill:#192EF4;}
</style>
<g>
	<g>
		<g>
			<defs>
				<rect id="SVGID_675_" x="-31.4" y="-25.3" width="161.8" height="161.4"/>
			</defs>
			<clipPath id="SVGID_2_">
				<use xlink:href="#SVGID_675_"  style="overflow:visible;"/>
			</clipPath>
			<path class="st0" d="M74.2,88.4c0.1,0.1,0.1,0.1,0.2,0.1c3.4,4.4,6.8,8.8,10.2,13.2c0.2,0.2,0.6,0.4,0.3,0.7
				c-0.3,0.3-0.5-0.1-0.7-0.3c-4.5-3.5-9-7.1-13.5-10.7c-0.4-0.3-0.7-0.3-1.1-0.1c-4.7,2.6-9.7,4.3-15.1,4.9
				c-4.3,0.6-8.6,0.4-12.8-0.4c-7.5-1.5-14.3-4.8-19.9-10.1C10,74.5,5.9,60.9,9.6,45.1c2.1-9.2,7.3-16.7,14.8-22.4
				c0.5-0.3,0.5-0.6,0.1-1.1c-4-5-8-10-11.9-15c-0.2-0.2-0.6-0.4-0.3-0.7C12.6,5.6,12.8,6,13,6.2c5.2,4.2,10.5,8.5,15.7,12.7
				c0.4,0.3,0.7,0.4,1.2,0.1c5.1-2.8,10.5-4.4,16.2-4.9c7-0.6,13.7,0.6,20.2,3.4C83.1,24.9,93.1,42.9,90.5,61
				c-0.8,5.3-2.4,10.2-5.1,14.8C82.5,80.8,78.8,84.9,74.2,88.4"/>
		</g>
		<g>
			<defs>
				<rect id="SVGID_677_" x="-31.4" y="-25.3" width="161.8" height="161.4"/>
			</defs>
			<clipPath id="SVGID_4_">
				<use xlink:href="#SVGID_677_"  style="overflow:visible;"/>
			</clipPath>
			<path style="clip-path:url(#SVGID_4_);" d="M74.3,83.6c-0.3,0.1-0.5,0.4,0,0.6c-0.3,0.3-0.5,0.6-0.9,0.7c-0.4,0.2-0.7,0.4-1.1,0
				c-0.3-0.3-0.6-0.5-0.7-0.9c-0.1-0.3-0.3-0.5-0.5-0.6c-0.3-0.3-0.6-0.5-0.7-0.9c0-0.3-0.2-0.5-0.4-0.6c-0.1,0-0.1-0.1-0.1-0.1
				c-0.1-0.3-0.3-0.5-0.6-0.7c-0.1,0-0.1-0.1-0.1-0.1c-0.1-0.3-0.3-0.5-0.5-0.6c-0.2-0.3-0.6-0.6-0.7-1c-0.1-0.3-0.3-0.5-0.5-0.6
				c-0.6-0.9-1.3-1.7-1.9-2.5c-0.1-0.3-0.3-0.5-0.5-0.6c-0.2-0.3-0.6-0.5-0.7-0.9c-0.1-0.3-0.3-0.5-0.5-0.6c-0.2-0.4-0.5-0.7-0.7-1
				c-0.1-0.3-0.3-0.5-0.6-0.7c-0.1,0-0.1,0-0.1-0.1c-0.1-0.7,0.4-0.5,0.7-0.5c3.6,0,7.2,0,10.8,0c0.2,0,0.6,0.1,0.8-0.2
				c-0.1-0.6-0.7-0.9-1-1.4c-0.4-0.7-1-1.2-1.6-1.7c-0.5-0.6-1.2-1.1-1.7-1.8c-0.5-0.7-1.1-1.2-1.7-1.7c-0.7-0.7-1.3-1.3-1.9-2
				c-0.4-0.7-1-1.2-1.6-1.7c-0.5-0.6-1.2-1.1-1.7-1.8c-0.4-0.9-1.3-1.3-1.8-2.1c-0.8-0.5-1.4-1.1-1.9-1.8c-0.4-0.7-1.1-1.1-1.5-1.7
				c-0.8-0.5-1.4-1.2-2-2c-0.3-0.4-0.6-0.8-1-1c-0.3-0.2-0.5-0.5-0.7-0.7c0-0.6,0.5-0.4,0.8-0.4c3.6,0,7.1,0,10.7,0
				c0.3,0,0.7,0.2,1,0c0.4-0.3,0.1-0.5-0.1-0.7c-0.2-0.2-0.3-0.5-0.6-0.5c-0.1-0.1-0.2-0.1-0.3-0.2c-0.2-0.2-0.3-0.4-0.6-0.4
				l-0.3-0.2c-0.2-0.2-0.3-0.4-0.6-0.5c-0.4-0.2-0.8-0.6-1.1-0.9c-0.2-0.2-0.3-0.5-0.7-0.6c-0.1,0-0.2-0.1-0.3-0.2
				c-0.2-0.2-0.3-0.4-0.6-0.4c-0.1-0.1-0.2-0.1-0.3-0.2c-0.2-0.2-0.3-0.4-0.6-0.4c-0.1-0.1-0.2-0.1-0.3-0.2
				c-0.2-0.2-0.3-0.4-0.6-0.5c-0.7-0.5-1.3-1-2-1.5c-0.2-0.3-0.5-0.7-0.9-0.8l0,0l0,0c-0.2-0.2-0.3-0.4-0.6-0.5
				c-0.4-0.2-0.8-0.6-1.1-0.9c-0.2-0.2-0.3-0.5-0.7-0.6c-0.1,0-0.2-0.1-0.3-0.2c-0.2-0.2-0.3-0.4-0.6-0.4L53.9,39
				c-0.3-0.3-0.5-0.7-0.9-0.8h-0.1l0,0c-0.2-0.2-0.3-0.4-0.6-0.5c-0.4-0.2-0.8-0.5-1.1-0.9c-0.3-0.2-0.4-0.5-0.8-0.6
				c-0.1,0-0.2-0.1-0.3-0.2c-0.2-0.2-0.3-0.4-0.6-0.4c-0.1,0-0.2-0.1-0.3-0.2C49,35.2,48.9,35,48.6,35c-0.1-0.1-0.2-0.1-0.3-0.2
				c-0.2-0.2-0.3-0.4-0.6-0.5c-0.4-0.2-0.7-0.6-1.1-0.9c-0.2-0.2-0.3-0.5-0.7-0.6c-0.1,0-0.2-0.1-0.3-0.2c-0.2-0.1-0.3-0.3-0.6-0.4
				c-0.4-0.2-0.7-0.6-1.1-0.9c-0.2-0.2-0.3-0.4-0.6-0.5c-0.4-0.2-0.7-0.6-1.1-0.9c-0.2-0.2-0.3-0.5-0.7-0.6l-0.1-0.1
				c-0.2-0.3-0.5-0.7-0.9-0.8s-0.6-0.4-0.9-0.7c-0.2-0.2-0.3-0.5-0.7-0.6c0,0.1-0.1,0-0.1,0c-0.2-0.3-0.5-0.6-0.8-0.8
				c-0.1,0-0.1,0-0.2,0c-0.2-0.2-0.3-0.4-0.6-0.4l-0.1-0.1c-0.2-0.3-0.5-0.7-0.9-0.8s-0.6-0.4-0.9-0.7c-0.2-0.2-0.3-0.5-0.7-0.6
				l-0.1-0.1c-0.2-0.2-0.3-0.5-0.7-0.6c-0.1,0-0.2-0.1-0.3-0.2s-0.3-0.3-0.5-0.4l0,0c-0.1-0.1,0-0.3,0-0.4c1.8-1,3.7-1.7,5.7-2.3
				c0.4,0,0.8-0.1,1.2-0.2c0.9-0.6,1.9-0.6,2.9-0.8c0.2,0.1,0.3,0.1,0.5,0.1c0.1,0,0.2,0,0.2-0.1c-0.1,0.1-0.1,0.1-0.2,0
				c0.2-0.1,0.4-0.1,0.6-0.1c0.3,0.1,0.6,0,0.9,0c0.6-0.3,1.1-0.1,1.7-0.2c2.4-0.4,4.7-0.3,7.1,0c0.4,0,0.9,0,1.3,0
				c0.4,0.2,0.7,0.2,1.1,0.2c1.2,0.2,2.4,0.6,3.7,0.7c0.4-0.2,0.7,0.2,0.9,0.3c0.6,0.2,1.4,0.1,1.9,0.7c0.3,0,0.6,0.3,1,0.2
				c1.5,0.5,3,1.2,4.4,2c0.4,0.3,0.7,0.6,1.2,0.6c1,0.6,2,1.3,3,2c0,0.3,0.4,0.4,0.6,0.5c0.3,0.1,0.5,0.3,0.7,0.5
				c0.2,0.2,0.4,0.5,0.7,0.6c0.1,0.1,0.2,0.1,0.3,0.2c0.3,0.3,0.5,0.6,0.9,0.8c0.8,0.7,1.6,1.4,2.3,2.3c0.1,0.4,0.6,0.6,0.8,1
				c0.1,0,0.3,0.1,0.3,0.3c0.1,0.3,0.3,0.5,0.6,0.7v0.1c0.1,0.3,0.3,0.5,0.6,0.7c1.6,2,2.9,4.1,3.9,6.4c0,0.3,0,0.7,0.4,0.9
				c0.3,0.6,0.6,1.3,0.8,2c0.1,0.2,0,0.4,0.2,0.5c0.5,1.3,1,2.7,1.1,4.1c0.1,0.4,0.1,0.9,0.3,1.3c0.1,0.1,0.1,0.3,0.1,0.5
				c-0.1,0.3-0.1,0.5,0,0.9c0,0,0-0.3-0.1-0.2c0-0.1,0-0.2,0.1-0.3c0.1,0.2,0.1,0.5,0.1,0.7c-0.2,0.3,0,0.6,0,0.9
				c0.2,0.6,0.1,1.2,0.2,1.8c0,0.3,0,0.6,0.1,0.9c0.1,1.4,0.1,2.8,0,4.2C87,57.6,87,57.9,87,58.1c-0.1,0.9-0.1,1.7-0.2,2.6
				c-0.1,0.6-0.2,1.2-0.2,1.8c-0.1,0.3,0,0.6-0.2,0.8c-0.1,0.3-0.3,0.6-0.2,1c0,0.2,0,0.3-0.1,0.4c-0.2,0.1-0.2,0.4-0.2,0.6
				c0,0,0,0.1,0,0.2c-1.4,4.7-3.5,9-6.6,12.8c-0.2,0.2-0.4,0.3-0.5,0.6c-0.1,0.1-0.1,0.2-0.2,0.3c-0.3,0.3-0.7,0.5-0.8,0.9
				c-0.1,0.1-0.3,0.3-0.4,0.4c-0.9,0.8-1.7,1.6-2.5,2.5C74.7,83.2,74.6,83.5,74.3,83.6"/>
		</g>
		<g>
			<defs>
				<rect id="SVGID_679_" x="-31.4" y="-25.3" width="161.8" height="161.4"/>
			</defs>
			<clipPath id="SVGID_6_">
				<use xlink:href="#SVGID_679_"  style="overflow:visible;"/>
			</clipPath>
			<path style="clip-path:url(#SVGID_6_);" d="M41.7,57c0.3,0.7,0.9,1.1,1.3,1.9c0.1,0,0.2,0.2,0.3,0.3c-0.2,0.3-0.6,0.2-0.9,0.2
				c-3.7,0-7.4,0-11.1,0c-0.3,0-0.6-0.1-0.9,0.1c-0.1,0.3,0.1,0.5,0.3,0.7c0.1,0.2,0.2,0.4,0.5,0.4c0.1,0.1,0.2,0.2,0.3,0.3
				c0.2,0.2,0.3,0.3,0.6,0.4l0.1,0.1c0.2,0.2,0.4,0.5,0.7,0.6l0.1,0.1c0.2,0.2,0.4,0.5,0.7,0.6c0.9,0.7,1.8,1.4,2.6,2.1
				c0.2,0.2,0.3,0.4,0.6,0.5l0.1,0.1c0.2,0.2,0.3,0.6,0.7,0.6l0.1,0.1c0.2,0.2,0.4,0.5,0.7,0.6c1.3,0.8,2.4,1.7,3.5,2.7
				c0.2,0.2,0.3,0.5,0.6,0.5l0.1,0.1c0.2,0.2,0.3,0.6,0.7,0.6l0.1,0.1c0.2,0.2,0.4,0.5,0.7,0.6c0.7,0.4,1.2,0.9,1.8,1.4
				c0.2,0.3,0.3,0.5,0.6,0.5c0.1,0.1,0.2,0.1,0.3,0.2c0.2,0.2,0.3,0.4,0.6,0.5c0.1,0.1,0.2,0.1,0.3,0.2c0.2,0.2,0.3,0.4,0.6,0.5
				c0.1,0,0.2,0.1,0.3,0.2c0.2,0.2,0.3,0.3,0.6,0.4c0.9,0.5,1.8,1.3,2.6,2c0.2,0.2,0.3,0.4,0.6,0.5c0.5,0.2,0.7,0.6,1.1,0.9
				c0.2,0.2,0.3,0.4,0.6,0.4c1.3,0.8,2.4,1.7,3.5,2.7c0.2,0.2,0.3,0.4,0.6,0.5l0.1,0.1c0.2,0.2,0.3,0.6,0.7,0.6
				c0.1,0.1,0.2,0.2,0.3,0.3c0.2,0.2,0.3,0.3,0.6,0.4c1.3,0.8,2.4,1.8,3.5,2.7c0.2,0.2,0.3,0.5,0.6,0.5l0.3,0.2
				c0.2,0.2,0.3,0.3,0.6,0.4c0.1,0,0.2,0.1,0.3,0.2c0.2,0.2,0.3,0.3,0.6,0.4c0.5,0.2,0.9,0.7,1.4,1c-1.5,0.9-3,1.6-4.6,2.1
				c-0.4,0-0.8-0.1-1,0.3c-0.1,0-0.1,0-0.2,0c-0.5-0.2-0.9,0.3-1.4,0.2c0,0,0,0,0.1,0c0.1,0,0.2,0,0.2,0.1c-0.9,0.2-1.7,0.6-2.7,0.6
				c-1.3,0.2-2.6,0.5-3.9,0.6c-0.7,0.1-1.3,0.1-1.9,0.2c-1.3,0-2.7,0-4.1,0c-0.7-0.1-1.3-0.2-1.9-0.2c-0.4-0.1-0.8-0.2-1.2-0.2
				c-0.9-0.1-1.7-0.3-2.6-0.4c-0.9,0-1.8-0.3-2.7-0.6c-0.2-0.2-0.5-0.2-0.8-0.2c-1.3-0.3-2.4-0.8-3.6-1.3C34.9,90,34.7,90,34.5,90
				c-1.4-0.5-2.7-1.2-3.9-2c-0.2-0.4-0.6-0.3-0.8-0.5c-1.2-0.7-2.4-1.5-3.4-2.4c-0.2-0.2-0.3-0.4-0.6-0.5c-0.2-0.1-0.3-0.3-0.5-0.4
				c-0.2-0.2-0.4-0.5-0.7-0.6c-1.1-1-2.2-2.1-3.2-3.2c-0.1-0.4-0.4-0.5-0.6-0.7c-0.9-0.8-1.4-1.8-2.1-2.7c-1.5-2.1-2.7-4.3-3.7-6.7
				c-0.5-1.4-1.2-2.8-1.4-4.4c-0.2-0.6-0.1-1.2-0.5-1.7c-0.3-0.7-0.4-1.5-0.5-2.2c0.1-0.3,0-0.7,0-1c-0.2-1.3-0.4-2.5-0.4-3.8
				c-0.2-1.1-0.1-2.2-0.1-3.3c0.1-0.9,0.1-1.8,0.2-2.7c-0.1-0.4,0.2-0.7,0-1.1c0-0.2,0-0.4,0.1-0.6c0.1,0.1,0.1,0.1,0.1,0.2
				c0-0.1,0-0.1,0-0.2c0-0.2,0-0.4-0.1-0.5c0-0.5,0.1-1,0.3-1.4c0.2-0.1,0-0.3,0.1-0.5c0.2-0.6,0.4-1.2,0.4-1.8
				c0.2-0.8,0.4-1.7,0.8-2.5c0.2-0.1,0.2-0.3,0.2-0.5c0.8-2.4,1.9-4.5,3.2-6.6c0.2,0,0.2-0.3,0.3-0.4c0.5-1,1.2-1.9,1.9-2.7
				c0.2-0.2,0.4-0.3,0.5-0.6c0-0.1,0.1-0.2,0.2-0.3c0.2-0.1,0.4-0.3,0.5-0.5l0.3-0.3c0.3-0.4,0.7-0.7,1-1.2l1.5-1.5
				c0.4-0.3,0.7-0.6,1-1c0.1,0,0.2-0.3,0.4-0.2c0.3-0.2,0.5-0.5,0.8-0.7c0.4-0.3,0.5-0.8,1-0.8c0.1-0.1,0.2-0.1,0.3-0.1
				c0.3,0.2,0.5,0.5,0.8,0.7c0.7,0.7,1.3,1.6,1.9,2.4c0.1,0.4,0.5,0.6,0.7,0.9l0,0c0.2,0.3,0.3,0.5,0.6,0.7c0.3,0.4,0.5,0.7,0.8,1
				c0.1,0.2,0.3,0.4,0.4,0.6c0.4,0.2,0.7,0.5,0.8,0.9c0.1,0.4,0.5,0.6,0.7,0.9l0,0c0.1,0.3,0.5,0.5,0.6,0.8c0.2,0.3,0.4,0.5,0.7,0.7
				c0.1,0,0.1,0,0.1,0.1c0.1,0.3,0.3,0.5,0.6,0.7c0.1,0,0.1,0,0.1,0.1c0.1,0.2,0.3,0.4,0.4,0.6c0.2,0.1,0.4,0.3,0.4,0.6
				c-0.1,0.5-0.6,0.3-0.9,0.3c-3.7,0-7.5,0-11.2,0c-0.4,0-0.8-0.1-1,0.4c0.4,0.5,0.8,0.9,1.2,1.3c0.3,0.6,0.9,0.9,1.2,1.4
				c0.7,0.4,1.2,1,1.7,1.6c0.4,0.7,1.1,1,1.5,1.7c0.5,0.2,0.9,0.6,1.2,1.1c0.3,0.6,0.9,0.9,1.3,1.5c0.5,0.4,1,0.8,1.4,1.3
				c0.4,0.8,1.2,1.2,1.7,1.9c0.5,0.3,0.9,0.8,1.3,1.3c0.2,0.4,0.5,0.8,1,1c0.6,0.7,1.2,1.3,1.8,2c0.3,0.7,0.9,1,1.3,1.6
				C40.8,55.9,41.3,56.4,41.7,57"/>
		</g>
		<g>
			<defs>
				<rect id="SVGID_681_" x="-31.4" y="-25.3" width="161.8" height="161.4"/>
			</defs>
			<clipPath id="SVGID_8_">
				<use xlink:href="#SVGID_681_"  style="overflow:visible;"/>
			</clipPath>
			<path style="clip-path:url(#SVGID_8_);fill:#192EF4;" d="M24.7,38.3c0.2-0.4,0.6-0.3,0.7-0.3c3.8,0,7.5,0,11.3,0
				c0.3,0,0.6,0.1,0.9-0.1c0-0.3-0.2-0.5-0.4-0.7C31.6,30.2,26,23.1,20.4,16c-2.1-2.6-4.1-5.3-6.2-7.9c0.1-0.1,0.2-0.1,0.3,0
				c5.9,4.7,11.8,9.4,17.7,14.2c7.7,6.2,15.5,12.4,23.2,18.7c3.3,2.7,6.5,5.3,9.8,8c-0.2,0.5-0.6,0.3-1,0.3c-3.4,0-6.8,0-10.2,0
				c-0.3,0-0.5,0-0.7,0c-0.2,0-0.5,0-0.6,0.3s0,0.4,0.2,0.6c0.3,0.4,0.6,0.7,1,1c0.1,0.1,0.2,0.2,0.3,0.3c5.7,6,11.5,12,17.2,18
				c0.6,0.6,1.3,1.3,2,2.1c-4.1,0-8.1,0-12,0c-0.2,0-0.5-0.1-0.6,0.1c-0.2,0.3,0.2,0.4,0.3,0.6C67,79.8,72.9,87.4,78.8,95
				c1.5,1.9,3,3.8,4.5,5.8l-0.1,0.1c-17.3-13.7-34.6-27.5-52-41.3c4.2,0,8.1,0,12.1,0c0.4,0,0.7,0.1,0.9-0.3
				c0.2-0.4-0.2-0.5-0.4-0.7c-2.6-2.8-5.3-5.7-8-8.5C32.1,46.2,28.4,42.2,24.7,38.3"/>
		</g>
		<g>
			<defs>
				<rect id="SVGID_683_" x="-31.4" y="-25.3" width="161.8" height="161.4"/>
			</defs>
			<clipPath id="SVGID_10_">
				<use xlink:href="#SVGID_683_"  style="overflow:visible;"/>
			</clipPath>
			<path style="clip-path:url(#SVGID_10_);fill:#192EF4;" d="M69.7,90.6c-5.3,3-10.8,4.7-16.7,5.2c-6.7,0.5-13.2-0.4-19.4-3.1
				C15.8,85,5.5,66,9.8,46.3c2-9.1,6.8-16.6,14-22.6c1.5-1.2,1.5-1.1,2.7,0.3c0.3,0.4,0.3,0.6-0.1,0.9c-8.2,6.4-13.1,14.7-14.5,24.9
				c-0.7,4.5-0.6,9,0.4,13.4c1.9,8.6,6.2,15.7,13,21.3c8.5,7,18.4,9.8,29.4,8.5c4.4-0.5,8.6-1.8,12.5-3.9c0.2-0.1,0.3-0.3,0.6-0.1
				C68.4,89.6,69,90,69.7,90.6"/>
		</g>
		<g>
			<defs>
				<rect id="SVGID_685_" x="-31.4" y="-25.3" width="161.8" height="161.4"/>
			</defs>
			<clipPath id="SVGID_12_">
				<use xlink:href="#SVGID_685_"  style="overflow:visible;"/>
			</clipPath>
			<path style="clip-path:url(#SVGID_12_);fill:#192EF4;" d="M29.8,19.8c0.1-0.1,0.2-0.2,0.2-0.2c0.2-0.1,0.4-0.2,0.6-0.3
				c4.4-2.3,9.1-3.8,14.1-4.4c6.8-0.8,13.4-0.2,19.7,2.5C79.3,23.7,87.9,34.9,90.1,51c0.6,4.8,0.2,9.5-1,14.2
				c-2.2,8.7-6.9,15.9-13.9,21.6c-1.4,1.1-1.4,1.1-2.5-0.3c-0.4-0.5-0.3-0.7,0.2-1.1c11.9-9.7,16.7-22.1,14.2-37.2
				c-1.5-9.2-6.3-16.7-13.5-22.6c-5.4-4.4-11.6-7.1-18.5-8.1c-4.3-0.6-8.5-0.5-12.7,0.3c-3.5,0.7-6.9,1.8-10.1,3.4
				c-0.2,0.1-0.4,0.4-0.7,0.1C31,20.8,30.4,20.3,29.8,19.8"/>
		</g>
		<g>
			<defs>
				<rect id="SVGID_687_" x="-31.4" y="-25.3" width="161.8" height="161.4"/>
			</defs>
			<clipPath id="SVGID_14_">
				<use xlink:href="#SVGID_687_"  style="overflow:visible;"/>
			</clipPath>
			<path style="clip-path:url(#SVGID_14_);fill:#192EF4;" d="M65.3,49c0.2,0.1,0.5,0.2,0.5,0.6H53.9c-0.3,0-0.5,0-0.7,0
				c-0.4,0.1-0.5,0.2-0.2,0.6c0.3,0.4,0.7,0.7,1,1.1c-0.6-0.1-0.8-0.7-1.2-1c-0.5-0.5-0.2-0.8,0.3-1c0.2-0.1,0.5-0.1,0.8-0.1
				c3.4,0,6.9,0,10.3,0C64.6,49.2,65,49.2,65.3,49"/>
		</g>
		<g>
			<defs>
				<rect id="SVGID_689_" x="-31.4" y="-25.3" width="161.8" height="161.4"/>
			</defs>
			<clipPath id="SVGID_16_">
				<use xlink:href="#SVGID_689_"  style="overflow:visible;"/>
			</clipPath>
		</g>
		<g>
			<defs>
				<rect id="SVGID_691_" x="-31.4" y="-25.3" width="161.8" height="161.4"/>
			</defs>
			<clipPath id="SVGID_18_">
				<use xlink:href="#SVGID_691_"  style="overflow:visible;"/>
			</clipPath>
			<path style="clip-path:url(#SVGID_18_);fill:#192EF4;" d="M24.7,38.3c-0.6-0.7,0.2-0.3,0.2-0.4c4.3,0,8.6,0,12.9,0
				c-0.2,0.3-0.6,0.2-0.9,0.2c-3.7,0-7.4,0-11.1,0C25.5,38.1,25.1,38.1,24.7,38.3"/>
		</g>
		<g>
			<defs>
				<rect id="SVGID_693_" x="-31.4" y="-25.3" width="161.8" height="161.4"/>
			</defs>
			<clipPath id="SVGID_20_">
				<use xlink:href="#SVGID_693_"  style="overflow:visible;"/>
			</clipPath>
		</g>
		<g>
			<defs>
				<rect id="SVGID_695_" x="-31.4" y="-25.3" width="161.8" height="161.4"/>
			</defs>
			<clipPath id="SVGID_22_">
				<use xlink:href="#SVGID_695_"  style="overflow:visible;"/>
			</clipPath>
		</g>
		<g>
			<defs>
				<rect id="SVGID_697_" x="-31.4" y="-25.3" width="161.8" height="161.4"/>
			</defs>
			<clipPath id="SVGID_24_">
				<use xlink:href="#SVGID_697_"  style="overflow:visible;"/>
			</clipPath>
		</g>
		<g>
			<defs>
				<rect id="SVGID_699_" x="-31.4" y="-25.3" width="161.8" height="161.4"/>
			</defs>
			<clipPath id="SVGID_26_">
				<use xlink:href="#SVGID_699_"  style="overflow:visible;"/>
			</clipPath>
		</g>
	</g>
</g>
</svg>
